# xmcd
#
# Track frame offsets:
#	150
#	11662
#	24965
#	38067
#	48542
#	60967
#	74335
#	87515
#	99217
#	114245
#	125155
#	136587
#
# Disc length: 1986 seconds
#
# Revision: 3
# Processed by: cddbd v1.5.2PL0 Copyright (c) Steve Scherf et al.
# Submitted via: EZCDAudioConverter 2.1.7.1
#
DISCID=9207c00c
DTITLE=Robert Drasnin - Voodoo!
DYEAR=1900
DGENRE=
TTITLE0=Chant Of The Moon
TTITLE1=Desiree
TTITLE2=Hindara
TTITLE3=Orinoco
TTITLE4=Warm Night Wind
TTITLE5=Mirage
TTITLE6=Voodoo
TTITLE7=Jardin De La Noche
TTITLE8=Tambuku
TTITLE9=You
TTITLE10=Paradise
TTITLE11=Enchantment
EXTD=
EXTT0=
EXTT1=
EXTT2=
EXTT3=
EXTT4=
EXTT5=
EXTT6=
EXTT7=
EXTT8=
EXTT9=
EXTT10=
EXTT11=
PLAYORDER=
